<svg xmlns="http://www.w3.org/2000/svg" width="800" height="560" viewBox="0 0 800 560" fill="none" role="img" aria-label="Cloud ERP inventory dashboard mockup">
  <defs>
    <linearGradient id="erp-bg" x1="0" y1="0" x2="800" y2="560" gradientUnits="userSpaceOnUse">
      <stop stop-color="#0f1f3d"/>
      <stop offset="1" stop-color="#162a4f"/>
    </linearGradient>
    <linearGradient id="erp-accent" x1="0" y1="0" x2="1" y2="1">
      <stop stop-color="#4a9eff"/>
      <stop offset="1" stop-color="#7ec8ff"/>
    </linearGradient>
  </defs>
  <rect width="800" height="560" rx="24" fill="url(#erp-bg)"/>
  <rect x="24" y="24" width="752" height="48" rx="12" fill="rgba(255,255,255,0.03)" stroke="rgba(255,255,255,0.08)"/>
  <circle cx="48" cy="48" r="6" fill="#ff5f57"/>
  <circle cx="68" cy="48" r="6" fill="#febc2e"/>
  <circle cx="88" cy="48" r="6" fill="#28c840"/>
  <rect x="120" y="38" width="180" height="20" rx="10" fill="rgba(255,255,255,0.06)"/>
  <rect x="620" y="36" width="132" height="24" rx="12" fill="url(#erp-accent)" opacity="0.9"/>

  <rect x="24" y="92" width="168" height="444" rx="16" fill="rgba(255,255,255,0.02)" stroke="rgba(255,255,255,0.08)"/>
  <rect x="44" y="116" width="128" height="12" rx="6" fill="rgba(255,255,255,0.12)"/>
  <rect x="44" y="148" width="96" height="10" rx="5" fill="#4a9eff" opacity="0.8"/>
  <rect x="44" y="176" width="112" height="10" rx="5" fill="rgba(255,255,255,0.08)"/>
  <rect x="44" y="204" width="104" height="10" rx="5" fill="rgba(255,255,255,0.08)"/>
  <rect x="44" y="232" width="120" height="10" rx="5" fill="rgba(255,255,255,0.08)"/>
  <rect x="44" y="260" width="88" height="10" rx="5" fill="rgba(255,255,255,0.08)"/>

  <rect x="212" y="92" width="564" height="120" rx="16" fill="rgba(255,255,255,0.02)" stroke="rgba(255,255,255,0.08)"/>
  <text x="236" y="128" fill="#8eb8ff" font-family="system-ui, sans-serif" font-size="12" font-weight="600" letter-spacing="1.5">WAREHOUSE LATENCY</text>
  <text x="236" y="172" fill="#ffffff" font-family="system-ui, sans-serif" font-size="36" font-weight="700">-40%</text>
  <text x="340" y="172" fill="#7ec8ff" font-family="system-ui, sans-serif" font-size="14">vs. legacy baseline</text>
  <rect x="236" y="188" width="320" height="8" rx="4" fill="rgba(255,255,255,0.06)"/>
  <rect x="236" y="188" width="224" height="8" rx="4" fill="url(#erp-accent)"/>

  <rect x="212" y="232" width="272" height="152" rx="16" fill="rgba(255,255,255,0.02)" stroke="rgba(255,255,255,0.08)"/>
  <text x="236" y="264" fill="#8eb8ff" font-family="system-ui, sans-serif" font-size="11" font-weight="600" letter-spacing="1.2">THROUGHPUT</text>
  <polyline points="236,350 280,320 320,330 360,290 400,300 440,260 480,270" stroke="#4a9eff" stroke-width="3" fill="none"/>
  <polygon points="236,350 280,320 320,330 360,290 400,300 440,260 480,270 480,360 236,360" fill="#4a9eff" opacity="0.12"/>

  <rect x="504" y="232" width="272" height="152" rx="16" fill="rgba(255,255,255,0.02)" stroke="rgba(255,255,255,0.08)"/>
  <text x="528" y="264" fill="#8eb8ff" font-family="system-ui, sans-serif" font-size="11" font-weight="600" letter-spacing="1.2">SYNC STATUS</text>
  <circle cx="548" cy="310" r="28" stroke="#4a9eff" stroke-width="6" fill="none" stroke-dasharray="120 40" transform="rotate(-90 548 310)"/>
  <text x="598" y="316" fill="#ffffff" font-family="system-ui, sans-serif" font-size="22" font-weight="700">99.99%</text>
  <text x="598" y="338" fill="#8eb8ff" font-family="system-ui, sans-serif" font-size="12">uptime</text>

  <rect x="212" y="404" width="564" height="132" rx="16" fill="rgba(255,255,255,0.02)" stroke="rgba(255,255,255,0.08)"/>
  <text x="236" y="436" fill="#8eb8ff" font-family="system-ui, sans-serif" font-size="11" font-weight="600" letter-spacing="1.2">INVENTORY ROWS / DAY</text>
  <rect x="236" y="456" width="48" height="56" rx="6" fill="#4a9eff" opacity="0.35"/>
  <rect x="296" y="432" width="48" height="80" rx="6" fill="#4a9eff" opacity="0.5"/>
  <rect x="356" y="448" width="48" height="64" rx="6" fill="#4a9eff" opacity="0.65"/>
  <rect x="416" y="420" width="48" height="92" rx="6" fill="#4a9eff" opacity="0.8"/>
  <rect x="476" y="408" width="48" height="104" rx="6" fill="url(#erp-accent)"/>
  <rect x="536" y="424" width="48" height="88" rx="6" fill="#4a9eff" opacity="0.75"/>
  <rect x="596" y="440" width="48" height="72" rx="6" fill="#4a9eff" opacity="0.55"/>
  <rect x="656" y="452" width="48" height="60" rx="6" fill="#4a9eff" opacity="0.4"/>
  <text x="236" y="530" fill="#7ec8ff" font-family="system-ui, sans-serif" font-size="12">10M+ daily rows - zero-downtime migration</text>
</svg>
